<?xml version="1.0" encoding="UTF-8" standalone="no"?>
<svg
   xmlns:dc="http://purl.org/dc/elements/1.1/"
   xmlns:cc="http://creativecommons.org/ns#"
   xmlns:rdf="http://www.w3.org/1999/02/22-rdf-syntax-ns#"
   xmlns:svg="http://www.w3.org/2000/svg"
   xmlns="http://www.w3.org/2000/svg"
   xmlns:sodipodi="http://sodipodi.sourceforge.net/DTD/sodipodi-0.dtd"
   xmlns:inkscape="http://www.inkscape.org/namespaces/inkscape"
   version="1.1"
   width="550.10101"
   height="370.10101"
   style="fill:none"
   id="svg28410"
   sodipodi:docname="industrialscale_02.svg"
   inkscape:version="0.92.5 (2060ec1f9f, 2020-04-08)">
  <metadata
     id="metadata28416">
    <rdf:RDF>
      <cc:Work
         rdf:about="">
        <dc:format>image/svg+xml</dc:format>
        <dc:type
           rdf:resource="http://purl.org/dc/dcmitype/StillImage" />
        <dc:title></dc:title>
      </cc:Work>
    </rdf:RDF>
  </metadata>
  <defs
     id="defs28414" />
  <sodipodi:namedview
     pagecolor="#ffffff"
     bordercolor="#666666"
     borderopacity="1"
     objecttolerance="10"
     gridtolerance="10"
     guidetolerance="10"
     inkscape:pageopacity="0"
     inkscape:pageshadow="2"
     inkscape:window-width="1920"
     inkscape:window-height="1034"
     id="namedview28412"
     showgrid="false"
     inkscape:zoom="1.3376344"
     inkscape:cx="135.89561"
     inkscape:cy="187.6943"
     inkscape:window-x="0"
     inkscape:window-y="22"
     inkscape:window-maximized="0"
     inkscape:current-layer="svg28410"
     fit-margin-top="0"
     fit-margin-left="0"
     fit-margin-right="0"
     fit-margin-bottom="0" />
  <path
     d=""
     style="fill:none;stroke:#000000;stroke-width:4;stroke-linecap:round;stroke-linejoin:round"
     id="path28404"
     inkscape:connector-curvature="0" />
  <path
     d=""
     style="fill:none;stroke:#000000;stroke-width:4;stroke-linecap:round;stroke-linejoin:round"
     id="path28406"
     inkscape:connector-curvature="0" />
  <path
     d="m 155.0505,185.0505 c 0,-66.27417 53.72583,-119.999999 120,-119.999999 66.27417,0 120,53.725829 120,119.999999 m -240,0 c 0,66.27417 53.72583,120 120,120 66.27417,0 120,-53.72583 120,-120 m -30,-89.999999 -2,2 92,-91.9999998 m -270,269.9999988 4,-4 -93.999999,94 v 0 0 m 449.999999,-210 v 0 l -60,60 m 45,-134.999999 v 0 l -60,59.999999 m -389.999999,90 v 0 l -60,60 m 45,-135 v 0 l -59.9999998,60 m 209.9999988,15 v 0 l 15,15 m 105,-105 v 0 l -15,-15 m -105,75 v 0 l 45,45 m 0,-120 v 0 l 75,75 m -45,-75 v 0 l 45,45 m -120,0 v 0 l 75,75 m -30,-75 v 0 l 45,45 m -60,-60 v 0 0"
     style="fill:none;stroke:#0a0a0a;stroke-width:10;stroke-linecap:round;stroke-linejoin:round"
     id="path28408"
     inkscape:connector-curvature="0"
     sodipodi:nodetypes="csccsccccccccccccccccccccccccccccccccccccccccccccc" />
</svg>
